<svg id="icons8-angularjs" xmlns="http://www.w3.org/2000/svg" width="156.006" height="175.244" viewBox="0 0 156.006 175.244">
  <path id="Tracciato_97" data-name="Tracciato 97" d="M80.754,2,3,31.015,15.287,139.041l65.549,38.2,65.887-38.721L159.006,30.5Z" transform="translate(-3 -2)" fill="#bdbdbd"/>
  <path id="Tracciato_98" data-name="Tracciato 98" d="M99.821,31.733,24,4.135v170.8l63.79-37.468Z" transform="translate(54.003 -2)" fill="#b71c1c"/>
  <path id="Tracciato_99" data-name="Tracciato 99" d="M80.765,4.115,5.181,32.279,17.216,137.962l63.59,37,.2-.112V4.2Z" transform="translate(-3 -2)" fill="#dd2c00"/>
  <path id="Tracciato_103" data-name="Tracciato 103" d="M18,24H47.88v9.413H18Z" transform="translate(40.706 61.236)" fill="#eee"/>
  <path id="Tracciato_100" data-name="Tracciato 100" d="M24,6V40.85l23.776,67.8H60Z" transform="translate(54.003 19.211)" fill="#bdbdbd"/>
  <path id="Tracciato_101" data-name="Tracciato 101" d="M11.013,108.651h12.22l23.776-67.8V6Z" transform="translate(30.994 19.21)" fill="#eee"/>
  <path id="Tracciato_102" data-name="Tracciato 102" d="M24,24H38.347v9.414H24Z" transform="translate(54.003 61.236)" fill="#bdbdbd"/>
</svg>
