<svg id="css-logo" xmlns="http://www.w3.org/2000/svg" width="178.79" height="174.082" viewBox="0 0 178.79 174.082">
  <path id="Tracciato_91" data-name="Tracciato 91" d="M185.79,5H7L22.776,160.758l73.619,18.324,73.619-18.324L185.79,5Z" transform="translate(-7 -5)" fill="#0277bd"/>
  <path id="Tracciato_92" data-name="Tracciato 92" d="M24,8V175.982l70.384-16.851L110.1,8Z" transform="translate(65.395 -5)" fill="#039be5"/>
  <path id="Tracciato_93" data-name="Tracciato 93" d="M54.536,13H24V41.63H40.443l-1.007,28.63H24v28.63H38.765L37.758,131.1,24,141.12v30.062l26.51-18.61,2.349-82.312h0Z" transform="translate(65.395 -5)" fill="#fff"/>
  <path id="Tracciato_94" data-name="Tracciato 94" d="M45.782,13V41.63H15.81L14.8,13ZM30.291,70.261l.674,28.63H45.782V70.261Zm1.347,42.945H18.168l1.01,39.367,26.6,18.61V141.12L31.975,131.1Z" transform="translate(43.613 -5)" fill="#eee"/>
</svg>
