<svg id="icons8-html-5" xmlns="http://www.w3.org/2000/svg" width="185.744" height="176.244" viewBox="0 0 185.744 176.244">
  <path id="Tracciato_87" data-name="Tracciato 87" d="M192.744,5H7L23.389,162.692l76.483,18.552,76.483-18.552L192.744,5Z" transform="translate(-7 -5)" fill="#e65100"/>
  <path id="Tracciato_88" data-name="Tracciato 88" d="M24,8V178.144l73.227-17.068L113.572,8Z" transform="translate(68.872 -5)" fill="#ff6d00"/>
  <path id="Tracciato_89" data-name="Tracciato 89" d="M24,100.064V71.043H54.426L51.95,154.48,24,173.344V142.871l14.506-10.158,1.061-32.649ZM55.488,42.022,56.549,13H24V42.022Z" transform="translate(68.872 -5)" fill="#fff"/>
  <path id="Tracciato_90" data-name="Tracciato 90" d="M46.981,142.871v30.473L19.13,154.48l-1.41-39.9h14.1l.705,18.138ZM29.707,42.022H46.981V13H14.9l2.468,87.064H46.981V71.043H30.764Z" transform="translate(45.891 -5)" fill="#eee"/>
</svg>
