<svg id="icons8-mongodb" xmlns="http://www.w3.org/2000/svg" width="138.068" height="175.244" viewBox="0 0 138.068 175.244">
  <path id="Tracciato_104" data-name="Tracciato 104" d="M144.068,62.269c0,89.812-69.034,116.975-69.034,116.975S6,152.081,6,62.269a263.083,263.083,0,0,1,1.534-27.6C8.685,23.715,15.2,14.953,24.409,12.324A167.882,167.882,0,0,1,75.034,4c19.943,0,38.736,4.381,51.008,8.324,9.2,2.629,15.724,11.829,16.875,22.344C143.3,42.116,144.068,51.754,144.068,62.269Z" transform="translate(-6 -4)" fill="#5d4037"/>
  <path id="Tracciato_105" data-name="Tracciato 105" d="M75.034,17.143c18.793,0,36.435,4.381,47.94,7.886,4.6,1.314,7.67,5.7,8.437,11.391.767,8.324,1.151,17.086,1.151,25.848,0,68.345-44.105,95.946-57.528,102.518-13.423-7.01-57.528-34.611-57.528-102.518,0-8.762.384-17.524,1.151-25.848.384-5.7,3.835-10.077,8.437-11.391,11.506-3.5,29.148-7.886,47.94-7.886M75.034,4C55.091,4,36.3,8.381,24.026,12.324,15.2,14.953,8.3,24.153,7.534,34.668A270.474,270.474,0,0,0,6,62.269c0,89.812,69.034,116.975,69.034,116.975s69.034-27.163,69.034-116.975a263.083,263.083,0,0,0-1.534-27.6c-1.151-10.953-7.67-19.715-16.875-22.344A167.882,167.882,0,0,0,75.034,4Z" transform="translate(-6 -4)" fill="#4caf50"/>
  <path id="Tracciato_106" data-name="Tracciato 106" d="M23,28h5.825V53.894H23Z" transform="translate(43.121 70.592)" fill="#dcedc8"/>
  <path id="Tracciato_107" data-name="Tracciato 107" d="M38.364,10S18,25.93,18,51.418C18,67.986,29.2,78.5,34.97,83.279l3.394-9.558,3.394,9.558c5.77-4.779,16.97-15.293,16.97-31.86C58.728,25.93,38.364,10,38.364,10Z" transform="translate(30.67 24.758)" fill="#4caf50"/>
  <path id="Tracciato_108" data-name="Tracciato 108" d="M38.364,10S18,25.93,18,51.418C18,67.986,29.2,78.5,34.97,83.279l3.394-9.558Z" transform="translate(30.67 24.758)" fill="#81c784"/>
</svg>
