<svg id="icons8-node-js" xmlns="http://www.w3.org/2000/svg" width="144.064" height="175.244" viewBox="0 0 144.064 175.244">
  <path id="Tracciato_95" data-name="Tracciato 95" d="M77.058,177.824a11.8,11.8,0,0,1-6.24-1.8L50.952,163.331c-2.968-1.792-1.52-2.426-.542-2.79a38.611,38.611,0,0,0,8.981-4.422,1.409,1.409,0,0,1,1.479.115l15.263,9.773a1.872,1.872,0,0,0,1.843,0l59.51-37.067a2.066,2.066,0,0,0,.91-1.734v-74.1a2.092,2.092,0,0,0-.921-1.767L77.991,14.3a1.72,1.72,0,0,0-1.831,0L16.684,51.337a2.077,2.077,0,0,0-.944,1.751v74.1a2,2,0,0,0,.925,1.718l16.3,10.157c8.849,4.774,14.255-.851,14.255-6.508V59.424a1.768,1.768,0,0,1,1.729-1.849h7.537A1.773,1.773,0,0,1,58.2,59.424v73.168c0,12.731-6.434,20.045-17.621,20.045-3.442,0-6.153,0-13.72-4.017l-15.612-9.707A13.824,13.824,0,0,1,5,127.192v-74.1a13.734,13.734,0,0,1,6.24-11.7L70.814,4.3a12.216,12.216,0,0,1,12.515,0l59.5,37.1a13.79,13.79,0,0,1,6.236,11.7v74.1a13.832,13.832,0,0,1-6.24,11.7l-59.5,37.079a11.8,11.8,0,0,1-6.271,1.8" transform="translate(-5 -2.581)" fill="#21a366"/>
  <path id="Tracciato_96" data-name="Tracciato 96" d="M44.91,97.48c-20.139,0-24.362-14.859-24.362-27.32,0-1.183.6-2.13,1.334-2.13h5.947c.657,0,1.211.768,1.314,1.81.9,9.737,3.572,14.647,15.75,14.647,9.7,0,13.826-3.52,13.826-11.791,0-4.76-1.176-8.295-16.245-10.665-12.606-2-20.394-6.461-20.394-22.664,0-14.925,7.835-23.814,20.957-23.814,14.738,0,22.042,8.224,22.963,25.887a3.034,3.034,0,0,1-.358,1.649,1.215,1.215,0,0,1-.979.683H58.683c-.622,0-1.164-.7-1.29-1.668-1.44-10.241-4.92-13.516-14.38-13.516-10.589,0-11.82,5.924-11.82,10.368,0,5.387,1.452,6.961,15.738,10C61.079,51.974,67.8,56.234,67.8,72.215c0,16.108-8.366,25.35-22.951,25.35" transform="translate(47.08 39.07)" fill="#21a366"/>
</svg>
