<svg xmlns="http://www.w3.org/2000/svg" width="344.244" height="353.604" viewBox="0 0 344.244 353.604">
  <g id="Risorsa_3" data-name="Risorsa 3" transform="translate(-99.835 -139.498)">
    <g id="Livello_2" data-name="Livello 2" transform="translate(-38.06 31.211)">
      <g id="OBJECTS" transform="translate(3 6)">
        <path id="Tracciato_109" data-name="Tracciato 109" d="M81.575,87.43a15.445,15.445,0,0,1-.333,5.128A14.356,14.356,0,0,1,79.3,97.233a13.7,13.7,0,0,1-3.761,9.954q-3.886,3.979-11.422,3.963H61.159a38.268,38.268,0,0,1-10.339-1.316,54.642,54.642,0,0,1-6.717-2.5l-3.484-1.513a10.483,10.483,0,0,0-3.359-.575,5.165,5.165,0,0,1-1.554,2.481A3.8,3.8,0,0,1,33.1,108.76h-8.6a4.567,4.567,0,0,1-4.3-4.69v-35.1a4.565,4.565,0,0,1,4.3-4.674h13.3a48.846,48.846,0,0,0,4.566-5.93,68.69,68.69,0,0,1,4.7-6.233A11.964,11.964,0,0,0,48.266,47.9a35.22,35.22,0,0,1,2.415-7.564,6.592,6.592,0,0,1,5.912-4.1A12.129,12.129,0,0,1,66,39.9q3.47,3.979,3.483,11.724a19.882,19.882,0,0,1-1.207,6.732h4.844a10.537,10.537,0,0,1,8.188,3.8,12.925,12.925,0,0,1,3.359,8.789A15.358,15.358,0,0,1,82.8,78.248,14.222,14.222,0,0,1,81.575,87.43ZM31.029,96.946a3.042,3.042,0,0,0-3.525-.769,3.654,3.654,0,0,0,0,6.515,3.042,3.042,0,0,0,3.525-.769,3.753,3.753,0,0,0,0-4.977Zm45.6-15.884a6.68,6.68,0,0,0-1.388-4.538c.625,0,1.263-.59,1.943-1.755a7.636,7.636,0,0,0,1.027-3.888,5.775,5.775,0,0,0-1.485-3.8,4.546,4.546,0,0,0-3.622-1.77H59.147a10.786,10.786,0,0,1,.68-3.706,20.421,20.421,0,0,1,1.207-3.026,34.728,34.728,0,0,0,1.388-3.222,11.15,11.15,0,0,0,.68-3.8A14.386,14.386,0,0,0,62.3,46c-.985-1.861-2.873-2.783-5.649-2.783a8.813,8.813,0,0,0-1.207,2.481,30.659,30.659,0,0,0-.666,3.026c-.361,1.951-.68,3.419-.944,4.387A11.357,11.357,0,0,1,51.5,57.069a57.689,57.689,0,0,0-3.9,5.28A58.437,58.437,0,0,1,43.159,68.4c-1.693,1.951-3.123,2.92-4.288,2.92H37.385v27.23a18.533,18.533,0,0,1,4.969.741,45.029,45.029,0,0,1,4.844,1.755c2.679.968,4.746,1.664,6.176,2.042a25.608,25.608,0,0,0,7.12,1.029h4.968a7.153,7.153,0,0,0,5.815-2.193q2.151-2.345,1.485-7.473a5.745,5.745,0,0,0,2.276-3.585,6.541,6.541,0,0,0-.4-4.75,7.515,7.515,0,0,0,2.04-5.053Z" transform="translate(114.706 66.074)" fill="#fff"/>
        <path id="Tracciato_111" data-name="Tracciato 111" d="M317.926,165.22a7.777,7.777,0,0,1,2.082,5.476v46.487a8.083,8.083,0,0,1-2.073,5.486,6.793,6.793,0,0,1-5.033,2.26H251.3a6.778,6.778,0,0,1-5.037-2.255,8.069,8.069,0,0,1-2.069-5.49V170.7a8.083,8.083,0,0,1,2.073-5.486,6.793,6.793,0,0,1,5.033-2.26H312.9a6.545,6.545,0,0,1,5.024,2.269ZM251.31,170.7v6.626q5.191,4.538,19.985,17.109l1.388,1.286a36.826,36.826,0,0,0,4.746,3.873,6.393,6.393,0,0,0,9.479,0,36.9,36.9,0,0,0,4.733-3.873l1.388-1.286q14.794-12.435,20-17.109V170.7ZM312.9,217.183V187.23l-17.182,14.84a42.57,42.57,0,0,1-6.079,4.841,14.034,14.034,0,0,1-7.55,2.587,14.813,14.813,0,0,1-7.633-2.6,58.834,58.834,0,0,1-6.065-4.841L251.3,187.23v29.953Z" transform="translate(159.13 111.374)" fill="#fff"/>
        <path id="Tracciato_112" data-name="Tracciato 112" d="M267.973,209.611C230.737,196.949,208,183.44,208,183.44l-25.425,2.587-25.425-2.587s-22.747,13.509-59.969,26.171S45.348,272.406,50.456,320.148c0,0,35.418,35.278,127.932,37.3v.106h8.327v-.106c92.514-2.027,127.932-37.3,127.932-37.3C319.809,272.406,305.209,222.273,267.973,209.611Z" transform="translate(111.324 98.333)" fill="#ff725e"/>
        <path id="Tracciato_113" data-name="Tracciato 113" d="M187.274,154.494l-31.324-3.4-31.324,3.4s5.218,32.449-3.137,57.485c0,0,10.45,14.22,34.46,14.22s34.46-14.22,34.46-14.22C182.056,186.942,187.274,154.494,187.274,154.494Z" transform="translate(138.842 106.37)" fill="#ffbe9d"/>
        <path id="Tracciato_114" data-name="Tracciato 114" d="M186.4,154.494l-31.324-3.4-31.324,3.4a163.419,163.419,0,0,1,1.61,23.433,68.207,68.207,0,0,0,12.31,15.128c6.412,5.688,18.417,6.989,21.581,6.989s15.169-1.3,21.581-6.989a55.284,55.284,0,0,0,4.358-4.372A164.553,164.553,0,0,1,186.4,154.494Z" transform="translate(139.715 107.925)" fill="#eb876e" opacity="0.25"/>
        <path id="Tracciato_115" data-name="Tracciato 115" d="M159.851,70.78c-31.712,0-52.461,28.016-52.461,62.6,0,25.914,11.672,63.294,30.88,80.358,6.412,5.688,18.417,6.989,21.581,6.989s15.169-1.3,21.581-6.989c19.208-17.064,30.893-54.444,30.893-80.358C212.325,98.8,191.507,70.78,159.851,70.78Z" transform="translate(133.575 74.848)" fill="#ffbe9d"/>
        <path id="Tracciato_116" data-name="Tracciato 116" d="M192.281,88.389c0-11.073-16.474-20.059-36.806-20.059S118.67,77.316,118.67,88.389s16.474,20.059,36.806,20.059S192.281,99.478,192.281,88.389Z" transform="translate(137.92 78.584)" fill="#5e432b"/>
        <path id="Tracciato_117" data-name="Tracciato 117" d="M135.488,91.619s-26.258,12.571-25.065,62.023c0,0-5.857-16.323-4.691-39.8S129.451,74.51,129.451,74.51Z" transform="translate(136.783 79.343)" fill="#5e432b"/>
        <path id="Tracciato_118" data-name="Tracciato 118" d="M163.25,91.619s26.258,12.571,25.065,62.023c0,0,5.857-16.323,4.691-39.8S169.287,74.51,169.287,74.51Z" transform="translate(151.197 79.343)" fill="#5e432b"/>
        <path id="Tracciato_119" data-name="Tracciato 119" d="M114.741,89.027S112.59,74.716,131.4,64.7c28.048-14.931,71.488,3.026,78.3,51.691C209.684,116.393,163.149,80.072,114.741,89.027Z" transform="translate(135.806 74.897)" fill="#5e432b"/>
        <path id="Tracciato_120" data-name="Tracciato 120" d="M127.76,74.938s-6.426-5.627-17.223,6.868-4.247,46.139-4.247,46.139,13.643-45.383,29.686-47.44-10.409-5.567-10.409-5.567" transform="translate(136.18 80.004)" fill="#5e432b"/>
        <path id="Tracciato_121" data-name="Tracciato 121" d="M172.464,74.938s6.426-5.627,17.223,6.868,4.164,46.139,4.164,46.139-13.629-45.383-29.686-47.44,10.423-5.567,10.423-5.567" transform="translate(149.744 80.004)" fill="#5e432b"/>
        <path id="Tracciato_122" data-name="Tracciato 122" d="M204.813,139.783c-1.61,15.929-15.266,27.366-22.636,26.488s-5.44-13.736-3.83-29.665,2.359-28.909,9.715-28.031S206.478,123.853,204.813,139.783Z" transform="translate(154.703 92.275)" fill="#01063d"/>
        <path id="Tracciato_123" data-name="Tracciato 123" d="M184.666,136.606c1.3-12.934,2.04-23.932,6.19-27.139a8.692,8.692,0,0,0-2.776-.893c-7.314-.877-8.063,12.1-9.715,28.031s-3.47,28.743,3.83,29.665a9.769,9.769,0,0,0,4.33-.635C181.557,162.746,183.209,150.932,184.666,136.606Z" transform="translate(155.527 92.276)" fill="#fff"/>
        <path id="Tracciato_124" data-name="Tracciato 124" d="M93.754,139.783c1.61,15.929,15.336,27.366,22.636,26.488s5.44-13.736,3.83-29.665-2.345-28.909-9.715-28.031S92.144,123.853,93.754,139.783Z" transform="translate(133.858 92.275)" fill="#01063d"/>
        <path id="Tracciato_125" data-name="Tracciato 125" d="M116.271,136.606c-1.61-15.929-2.345-28.909-9.715-28.031a8.485,8.485,0,0,0-2.776.893c4.164,3.207,4.885,14.2,6.19,27.139,1.388,14.326,3.095,26.141-1.887,29.03a9.681,9.681,0,0,0,4.316.635C119.754,165.394,117.881,152.535,116.271,136.606Z" transform="translate(136.971 92.276)" fill="#fff"/>
        <path id="Tracciato_126" data-name="Tracciato 126" d="M223.967,150.582,219.5,149.07c.139-.469,13.74-47.138-5.246-75.638-9.868-14.795-26.938-22.3-50.726-22.3s-40.872,7.564-50.74,22.313c-18.986,28.531-5.371,75.154-5.232,75.638l-4.469,1.513c-.6-2-14.489-49.588,5.9-80.176,10.811-16.2,29.145-24.431,54.542-24.431s43.731,8.229,54.542,24.431C238.457,100.979,224.564,148.57,223.967,150.582Z" transform="translate(129.929 68.522)" fill="#01063d"/>
        <path id="Tracciato_127" data-name="Tracciato 127" d="M113.26,74.383a7.084,7.084,0,0,1-6.549-4.843,8.18,8.18,0,0,1,1.705-8.424C120.407,48.8,137.866,42.57,160.308,42.57c21.983,0,39.207,6.051,51.156,17.805a8.178,8.178,0,0,1,.493,10.854,6.65,6.65,0,0,1-9.958.537c-9.284-9.183-23.316-13.842-41.635-13.842-18.736,0-32.934,4.841-42.218,14.371A6.73,6.73,0,0,1,113.26,74.383Z" transform="translate(133.157 69.517)" fill="#719dfc"/>
        <path id="Tracciato_128" data-name="Tracciato 128" d="M149.33,176.627v-3.419c22.136,0,38.554-6.172,47.478-17.866a32.357,32.357,0,0,0,6.814-17.442h3.137a35.82,35.82,0,0,1-7.55,19.56C192.575,166.234,178.516,176.627,149.33,176.627Z" transform="translate(146.19 103.736)" fill="#01063d"/>
        <path id="Tracciato_129" data-name="Tracciato 129" d="M160.69,164.318c0,3.767-4.552,6.823-10.173,6.823s-10.187-3.026-10.187-6.823,4.552-6.838,10.187-6.838S160.69,160.536,160.69,164.318Z" transform="translate(145.941 112.159)" fill="#01063d"/>
        <path id="Tracciato_130" data-name="Tracciato 130" d="M283.524,269.024c-3.789,5.352-.305-20.257-1.887-33.644,0,0-2.026,35.737-9.243,68.046q3.622-1.309,6.828-2.5c3.733-12.667,9.09-32.963,11.255-51.519C290.477,249.369,287.313,263.671,283.524,269.024Zm-209.385,0c-3.789-5.365-6.939-19.629-6.939-19.629,2.318,19.89,8.327,41.744,12.019,54.084q3.123,1.086,6.565,2.146c-7.619-32.819-9.715-70.218-9.715-70.218-1.624,13.361,1.86,38.97-1.929,33.617Z" transform="translate(117.628 135.403)" fill="#b14f41" opacity="0.5"/>
      </g>
    </g>
  </g>
</svg>
