<svg xmlns="http://www.w3.org/2000/svg" width="492.595" height="766.067" viewBox="0 0 492.595 766.067">
  <g id="Livello_2" data-name="Livello 2" transform="translate(0 0)">
    <g id="Character" transform="translate(0 0)">
      <path id="Tracciato_1" data-name="Tracciato 1" d="M290.741,385.817,344.6,328.695l-96-176.442a92.942,92.942,0,0,0-36.87-27.48l-33.827-13.8L93.814,94.49,34.132,119.625C19.049,126,9.855,142.488,11.775,159.764l15.6,141.065,9.209,183.641,216.941-40.3-21.9-68.023.732-105.891Z" transform="translate(13.056 132.404)" fill="#ff725e"/>
      <path id="Tracciato_2" data-name="Tracciato 2" d="M116.582,305.522c.5,0,.635-36.64.293-81.928s-1.041-81.928-1.546-81.928-.635,36.64-.293,81.946S116.077,305.522,116.582,305.522Z" transform="translate(130.104 198.52)" fill="#263238"/>
      <path id="Tracciato_3" data-name="Tracciato 3" d="M238.729,383.881,107.65,327.272c-10.392-4.3-17.662-14.94-18.679-27.352l-9.6-134.837s1.139-57.342-32.249-60.127l-18.988,8.1C3.581,126.959-2.5,165.3.847,194.908c4.751,42.136,6.72,101.585,12.041,138.1,4.344,29.862,21.055,53.477,47.528,63.809l161.457,37.5Z" transform="translate(0.001 147.072)" fill="#ff725e"/>
      <path id="Tracciato_4" data-name="Tracciato 4" d="M38.118,138.561a20.685,20.685,0,0,1,.407,3.078c.212,2.2.488,5.166.846,8.885.667,7.914,1.627,19.035,2.766,32.7s2.424,30.283,3.889,48.512c.358,4.562.732,9.16,1.106,14.015a111.1,111.1,0,0,0,1.627,14.436,24.631,24.631,0,0,0,6.508,12.641,43.888,43.888,0,0,0,12.089,8.061c36.154,16.781,69.461,30.631,93.639,40.3l28.718,11.34,7.81,3.1a15.759,15.759,0,0,1,2.685,1.191,18.227,18.227,0,0,1-2.8-.843l-7.924-2.748c-6.866-2.437-16.743-6.1-28.913-10.791-24.406-9.417-57.681-23.065-93.932-39.883a45.487,45.487,0,0,1-12.577-8.427,26.53,26.53,0,0,1-6.98-13.575A111.922,111.922,0,0,1,45.456,245.9q-.537-7.163-1.041-14.033c-1.318-18.229-2.506-34.68-3.515-48.548s-1.627-24.842-2.213-32.757c-.212-3.664-.391-6.705-.5-8.9a18.038,18.038,0,0,1-.065-3.1Z" transform="translate(43.141 194.168)" fill="#263238"/>
      <path id="Tracciato_5" data-name="Tracciato 5" d="M2.937,169.084a7.074,7.074,0,0,1,.26,1.832c.114,1.411.26,3.133.439,5.221.391,4.8.911,11.267,1.627,19.126s1.627,17.679,2.945,28.286a289.119,289.119,0,0,0,5.825,34.13,52.989,52.989,0,0,0,6.411,16.287,87.39,87.39,0,0,0,30.768,29.789c13.407,7.475,23.154,7.585,23.023,8.079a5.336,5.336,0,0,1-1.708,0,33.428,33.428,0,0,1-4.881-.659,62.078,62.078,0,0,1-17.036-6.192,82.764,82.764,0,0,1-21.559-16.854,91.364,91.364,0,0,1-10.072-13.1,54.168,54.168,0,0,1-6.655-16.8,271.3,271.3,0,0,1-5.776-34.5c-1.22-10.662-2-20.3-2.571-28.4s-.846-14.656-.993-19.2c0-2.089,0-3.811-.114-5.221a6.631,6.631,0,0,1,.065-1.832Z" transform="translate(3.215 236.945)" fill="#263238"/>
      <path id="Tracciato_6" data-name="Tracciato 6" d="M29.181,227.768c-.179,0,.374-3.078,2.392-7.511a47.848,47.848,0,0,1,11-15.059A44.361,44.361,0,0,1,58.1,195.891a18.528,18.528,0,0,1,7.273-1.356c0,.33-2.7.916-6.866,2.62a51.464,51.464,0,0,0-14.855,9.472A54.9,54.9,0,0,0,32.6,220.9C30.434,225.038,29.458,227.859,29.181,227.768Z" transform="translate(33.024 272.61)" fill="#263238"/>
      <g id="Raggruppa_1" data-name="Raggruppa 1" transform="translate(85.603 372.777)" opacity="0.3">
        <path id="Tracciato_7" data-name="Tracciato 7" d="M155.594,297.347c-14.009-8.482-27.661-15.023-42.3-22.167s-29.011-16.3-38.595-30.173c-18.093-26.161-16.043-63.919-34.56-89.769q1.839,26.015,3.628,52.066c1.106,15.92-1.155,31.639,8.4,42.448,8.038,9.16,23.723,16.1,34.836,20.024,22.324,7.914,46.356,19.639,68.68,27.48" transform="translate(-40.135 -155.237)"/>
      </g>
      <path id="Tracciato_8" data-name="Tracciato 8" d="M115.08,145.808l11.341,75.039-10.739-21.27Z" transform="translate(130.37 204.325)" opacity="0.3"/>
      <path id="Tracciato_9" data-name="Tracciato 9" d="M77.1,126.852a12.723,12.723,0,0,1-3.043.238l-8.266.238c-6.98.183-16.613.55-27.221,1.374s-20.209,1.832-27.14,2.8l-8.217,1.1a11.92,11.92,0,0,1-3.043.2,13.485,13.485,0,0,1,2.961-.788c1.92-.421,4.7-.934,8.135-1.5,6.915-1.154,16.515-2.437,27.173-3.261s20.322-1.026,27.319-.934c3.5,0,6.313.128,8.282.256A11.3,11.3,0,0,1,77.1,126.852Z" transform="translate(0.2 176.986)" fill="#455a64"/>
      <path id="Tracciato_10" data-name="Tracciato 10" d="M78.817,156.473c0,.421-17.15,2.272-38.367,4.159s-38.465,3.078-38.5,2.656,17.15-2.253,38.383-4.14S78.785,156.07,78.817,156.473Z" transform="translate(2.214 219.162)" fill="#455a64"/>
      <path id="Tracciato_11" data-name="Tracciato 11" d="M81.742,187.866a13.279,13.279,0,0,1-2.717,1.667c-1.774,1.008-4.426,2.308-7.745,3.811a151.618,151.618,0,0,1-26.815,9.16A148.648,148.648,0,0,1,16.593,206.5c-3.612.165-6.508.183-8.526.092a13.769,13.769,0,0,1-3.124-.257A11.945,11.945,0,0,1,8.051,206c2,0,4.881-.257,8.477-.55a187.451,187.451,0,0,0,27.661-4.4,189.288,189.288,0,0,0,26.684-8.684C74.128,191,76.91,189.844,78.749,189A12.914,12.914,0,0,1,81.742,187.866Z" transform="translate(5.602 263.267)" fill="#455a64"/>
      <path id="Tracciato_12" data-name="Tracciato 12" d="M74.526,203.985c.228.421-6.834,3.774-13.017,11.194s-8.64,15.206-9.047,15a14.383,14.383,0,0,1,1.432-5.13A40.931,40.931,0,0,1,60.4,214.189a38.639,38.639,0,0,1,9.4-8.134A12.67,12.67,0,0,1,74.526,203.985Z" transform="translate(59.434 285.858)" fill="#455a64"/>
      <path id="Tracciato_13" data-name="Tracciato 13" d="M85.063,240.69c-.342,0,1.172-7.09,5.142-14.8s8.607-12.824,8.851-12.623-3.791,5.771-7.631,13.337S85.453,240.837,85.063,240.69Z" transform="translate(96.312 298.855)" fill="#455a64"/>
      <path id="Tracciato_14" data-name="Tracciato 14" d="M69.832,108.981c0,.421-8.233,2.363-18.533,4.36s-18.728,3.3-18.793,2.895,8.233-2.363,18.533-4.36S69.767,108.578,69.832,108.981Z" transform="translate(36.826 152.611)" fill="#455a64"/>
      <path id="Tracciato_15" data-name="Tracciato 15" d="M136.054,115.336c0,.4-11.552-.714-25.708-2.528s-25.578-3.664-25.529-3.994,11.552.715,25.692,2.51S136.1,114.933,136.054,115.336Z" transform="translate(96.086 152.394)" fill="#455a64"/>
      <path id="Tracciato_16" data-name="Tracciato 16" d="M199.554,138.212a9.63,9.63,0,0,1-1.627.11H175.913c-14.644,0-34.771.11-57.046.714s-42.418,1.612-56.948,2.418l-17.361,1.008-4.7.22a7.075,7.075,0,0,1-1.627,0,6.522,6.522,0,0,1,1.627-.275l4.686-.495c4.068-.4,9.958-.916,17.247-1.447,14.644-1.1,34.739-2.235,57.03-2.858s42.484-.586,57.079-.293c7.306.147,13.212.311,17.3.495l4.7.238A6.236,6.236,0,0,1,199.554,138.212Z" transform="translate(43.308 192.135)" fill="#455a64"/>
      <path id="Tracciato_17" data-name="Tracciato 17" d="M196.218,170.618c0,.4-34.364,3.169-76.8,6.174s-76.88,5.093-76.9,4.672,34.348-3.169,76.8-6.174S196.2,170.2,196.218,170.618Z" transform="translate(48.174 239.019)" fill="#455a64"/>
      <path id="Tracciato_18" data-name="Tracciato 18" d="M154.068,199.675a15.19,15.19,0,0,1-2.9,1.319c-1.887.769-4.653,1.832-8.135,3-6.866,2.4-16.466,5.5-27.189,8.189s-20.55,4.745-27.661,5.954c-3.58.6-6.508,1.044-8.477,1.282a12.3,12.3,0,0,1-3.14.22,12.343,12.343,0,0,1,3.059-.806l8.38-1.74c7.078-1.466,16.84-3.664,27.53-6.357s20.29-5.606,27.221-7.768l8.135-2.528A12.4,12.4,0,0,1,154.068,199.675Z" transform="translate(86.744 279.817)" fill="#455a64"/>
      <path id="Tracciato_19" data-name="Tracciato 19" d="M165.374,146.968c.1.4-11.081,3.847-24.976,7.694s-25.22,6.65-25.318,6.247,11.081-3.829,24.976-7.694S165.276,146.565,165.374,146.968Z" transform="translate(130.369 205.895)" fill="#455a64"/>
      <path id="Tracciato_20" data-name="Tracciato 20" d="M138.291,124.694c0,.4-4.881,1.7-11.064,2.895s-11.243,1.832-11.39,1.429,4.881-1.7,11.064-2.895S138.225,124.291,138.291,124.694Z" transform="translate(131.224 174.565)" fill="#455a64"/>
      <path id="Tracciato_21" data-name="Tracciato 21" d="M67.112,162.194c-.277,0-.683-4.763-3.124-11.963A62.074,62.074,0,0,0,48.628,125.7a56.378,56.378,0,0,0-24.406-13.777c-6.931-1.832-11.39-1.832-11.39-2.07a11.723,11.723,0,0,1,3.14-.11,43.373,43.373,0,0,1,8.51,1.154,53.9,53.9,0,0,1,25.09,13.685,59.689,59.689,0,0,1,15.36,25.3,55.9,55.9,0,0,1,1.985,8.959,14.056,14.056,0,0,1,.2,3.353Z" transform="translate(14.538 153.699)" fill="#263238"/>
      <path id="Tracciato_22" data-name="Tracciato 22" d="M111.543,115.629c.374,0,2.441,11.67,4.621,26.216s3.612,26.4,3.254,26.473-2.473-11.6-4.637-26.253S111.152,115.684,111.543,115.629Z" transform="translate(126.292 162.03)" fill="#263238"/>
      <path id="Tracciato_23" data-name="Tracciato 23" d="M192.371,291.693s100.75,29.917,104.8,31.437c6.069,2.29,5.044,26.143-4.393,25.777-4.474-.183-77.4,2.913-86.61,2.29s-37.016-12.366-37.016-12.366Z" transform="translate(191.626 408.777)" fill="#ff725e"/>
      <path id="Tracciato_24" data-name="Tracciato 24" d="M199.8,321.473c.5,0,1.188-5.643,4.426-11.6s7.452-9.526,7.127-9.966-5.174,2.638-8.575,9.05S199.356,321.528,199.8,321.473Z" transform="translate(226.115 420.236)" fill="#263238"/>
      <path id="Tracciato_25" data-name="Tracciato 25" d="M194.857,318.79c.488.092,1.513-5.02,4.2-10.662s5.841-9.6,5.483-9.966-4.214,3.169-7,9.16S194.369,318.772,194.857,318.79Z" transform="translate(220.543 417.807)" fill="#263238"/>
      <path id="Tracciato_26" data-name="Tracciato 26" d="M190.47,318.154c.521,0,.13-5.5,2.359-11.432s5.841-9.71,5.483-10.113-4.719,2.931-7.045,9.453S190.08,318.3,190.47,318.154Z" transform="translate(215.069 415.622)" fill="#263238"/>
      <path id="Tracciato_27" data-name="Tracciato 27" d="M195.231,314.393c.179,0,1.074-2.968,1.09-8.043a40.652,40.652,0,0,0-2.522-13.832,6.181,6.181,0,0,0-1.627-2.638,2.545,2.545,0,0,0-3.466.183,4.908,4.908,0,0,0-1.35,3.06,24.348,24.348,0,0,0-.13,2.858,25.8,25.8,0,0,0,.635,5.276,32.652,32.652,0,0,0,3.091,8.262,22.628,22.628,0,0,0,4.523,6.522c.244-.183-1.448-2.693-3.466-7.108a36.892,36.892,0,0,1-2.636-8.043,25.3,25.3,0,0,1-.488-4.928c0-1.667,0-3.664.927-4.543a.928.928,0,0,1,1.334-.11,4.718,4.718,0,0,1,1.106,1.832,43.609,43.609,0,0,1,2.847,13.209C195.426,311.3,194.955,314.357,195.231,314.393Z" transform="translate(212.098 405.404)" fill="#263238"/>
      <path id="Tracciato_28" data-name="Tracciato 28" d="M201.611,299.936c0-.183-2.392-1.081-6.508-1.117a27.339,27.339,0,0,0-7.143.934,15.465,15.465,0,0,0-4.117,1.631,4.646,4.646,0,0,0-2.278,4.946,5.175,5.175,0,0,0,3.628,3.847,8.6,8.6,0,0,0,4.523,0,16.947,16.947,0,0,0,6.508-3.463,18.611,18.611,0,0,0,4.686-4.946c-.179-.22-2.083,1.557-5.369,3.9a17.18,17.18,0,0,1-6.183,2.876,7.539,7.539,0,0,1-3.726,0,3.583,3.583,0,0,1-2.457-2.583,2.8,2.8,0,0,1,1.5-3,14.271,14.271,0,0,1,3.645-1.539,32.155,32.155,0,0,1,6.8-1.264C199.089,299.807,201.562,300.229,201.611,299.936Z" transform="translate(205.605 418.763)" fill="#263238"/>
      <path id="Tracciato_29" data-name="Tracciato 29" d="M207.379,320c.5,0,0-4.672,1.985-9.746s5.256-8.043,4.881-8.464-4.377,2.125-6.508,7.786S206.94,320.2,207.379,320Z" transform="translate(234.006 422.864)" fill="#263238"/>
      <path id="Tracciato_30" data-name="Tracciato 30" d="M173.981,311.454a21.6,21.6,0,0,0,3.905,1.96,82.862,82.862,0,0,0,11.211,3.664c9.632,2.62,23.365,4.085,38.465,3.92s28.7-.916,38.579-1.337l11.666-.66a19.491,19.491,0,0,0,4.279-.495,18.941,18.941,0,0,0-4.3-.22l-11.7.092-38.546.806a168.7,168.7,0,0,1-38.188-3.353C179.725,313.762,174.1,311.032,173.981,311.454Z" transform="translate(197.096 436.41)" fill="#263238"/>
      <path id="Tracciato_31" data-name="Tracciato 31" d="M172.587,317.768c.146.257,2.9-1.484,7.55-3.664a33.01,33.01,0,0,1,19.07-3.408c7.6,1.246,13.017,6.724,16.482,10.516s5.6,6.559,5.809,6.375-1.627-3.023-4.881-7.237a42.259,42.259,0,0,0-6.687-6.705,23.111,23.111,0,0,0-10.413-4.726,31.464,31.464,0,0,0-19.834,4.012C175.011,315.478,172.489,317.585,172.587,317.768Z" transform="translate(195.513 432.551)" fill="#263238"/>
      <path id="Tracciato_32" data-name="Tracciato 32" d="M177.567,281.241S82.235,348.22,78.8,350.986c-5.125,4.159.765,23.981,9.649,20.555,4.214-1.63,84.219-25.5,92.745-29.092s31.761-23.816,31.761-23.816Z" transform="translate(87.115 394.13)" fill="#ff725e"/>
      <path id="Tracciato_33" data-name="Tracciato 33" d="M119.915,313.161c.423-.092-1.269-5.991-6.378-10.992s-10.69-6.284-10.739-5.826,4.881,2.473,9.6,7.163S119.475,313.4,119.915,313.161Z" transform="translate(116.456 415.174)" fill="#263238"/>
      <path id="Tracciato_34" data-name="Tracciato 34" d="M122.841,309.512c.407-.165-1.432-5.313-5.809-10.058s-9.1-6.87-9.258-6.449,3.938,3.169,8.054,7.713S122.4,309.75,122.841,309.512Z" transform="translate(122.088 410.543)" fill="#263238"/>
      <path id="Tracciato_35" data-name="Tracciato 35" d="M126.072,307.9c.439,0,0-5.844-4.165-11.249s-9.323-7.163-9.4-6.705,4.344,2.8,8.135,7.841S125.584,308.049,126.072,307.9Z" transform="translate(127.448 406.235)" fill="#263238"/>
      <path id="Tracciato_36" data-name="Tracciato 36" d="M118.812,307.024c.26-.128-1.041-2.895-2.148-7.658a45.72,45.72,0,0,1-1.123-8.464,44.322,44.322,0,0,1,.1-5.056,4.644,4.644,0,0,1,.521-2.144.94.94,0,0,1,1.3-.33c1.09.476,1.627,2.455,2.164,4.03a24.889,24.889,0,0,1,.944,4.855,37.827,37.827,0,0,1-.244,8.519c-.667,4.855-1.627,7.8-1.3,7.9s1.481-2.73,2.473-7.676a33.971,33.971,0,0,0,.618-8.885,25.608,25.608,0,0,0-.911-5.239,21.738,21.738,0,0,0-.927-2.675,4.678,4.678,0,0,0-2.148-2.492,2.607,2.607,0,0,0-3.352.953,6.56,6.56,0,0,0-.781,3.06,41.174,41.174,0,0,0,1.513,14C116.957,304.551,118.666,307.134,118.812,307.024Z" transform="translate(129.045 394.399)" fill="#263238"/>
      <path id="Tracciato_37" data-name="Tracciato 37" d="M116.127,294.385c.114.257,2.343-.953,6.183-1.96a32.038,32.038,0,0,1,6.834-1.008,14.713,14.713,0,0,1,3.921.275,2.687,2.687,0,0,1,2.278,2.382,3.778,3.778,0,0,1-1.627,3.243,7.729,7.729,0,0,1-3.547,1.282,16.6,16.6,0,0,1-6.7-.733c-3.791-1.172-6.118-2.235-6.216-1.96a20.738,20.738,0,0,0,13.017,4.342,8.676,8.676,0,0,0,4.312-1.466,5.515,5.515,0,0,0,2.359-4.855,4.394,4.394,0,0,0-3.563-3.957,15.045,15.045,0,0,0-4.377-.22,26.967,26.967,0,0,0-7.078,1.447C118.08,292.553,116.013,294.2,116.127,294.385Z" transform="translate(131.551 405.957)" fill="#263238"/>
      <path id="Tracciato_38" data-name="Tracciato 38" d="M93.423,331.988c.114.146,1.627-1.044,2.327-3.976a16.026,16.026,0,0,0-1.774-11.1,40.271,40.271,0,0,0-3.254-5.093,17.779,17.779,0,0,0-3.254-3.664,5.325,5.325,0,0,0-3.043-1.356c-.8,0-1.2.165-1.188.275a8.766,8.766,0,0,1,3.466,2.07,21.551,21.551,0,0,1,2.75,3.664q1.6,2.412,2.978,5a16.839,16.839,0,0,1,2.1,9.966C94.237,330.412,93.2,331.8,93.423,331.988Z" transform="translate(94.297 429.946)" fill="#263238"/>
      <path id="Tracciato_39" data-name="Tracciato 39" d="M110.3,314.728c.439,0,.309-5.148-3.368-9.8s-8.347-5.771-8.38-5.295,3.84,2.2,7.094,6.449S109.8,314.856,110.3,314.728Z" transform="translate(111.651 419.762)" fill="#263238"/>
      <path id="Tracciato_40" data-name="Tracciato 40" d="M200.115,298.284a32.1,32.1,0,0,0-4.182,3.1,117.583,117.583,0,0,1-11.764,7.713,147.348,147.348,0,0,1-18.663,8.922c-7.224,2.895-15.327,5.606-23.886,8.281-17.15,5.295-32.688,10.131-43.932,13.759l-13.245,4.36a28.693,28.693,0,0,0-4.8,1.832,26.453,26.453,0,0,0,4.979-1.154l13.391-3.811c11.292-3.3,26.863-7.951,44.029-13.246,8.575-2.675,16.71-5.5,23.951-8.464a137.351,137.351,0,0,0,18.712-9.343,95.344,95.344,0,0,0,11.569-8.3,25.971,25.971,0,0,0,3.84-3.646Z" transform="translate(90.227 418.015)" fill="#263238"/>
      <path id="Tracciato_41" data-name="Tracciato 41" d="M161.062,300.552c0-.2-2.945-1.392-8.135-2.29a31.216,31.216,0,0,0-19.981,2.711,24.489,24.489,0,0,0-8.575,7.9,43.986,43.986,0,0,0-4.458,8.556c-2.018,5.13-2.847,8.427-2.652,8.5s1.481-3.06,3.726-7.951,5.841-11.725,12.724-15.389a32.832,32.832,0,0,1,19.135-2.968C157.89,300.094,161.014,300.845,161.062,300.552Z" transform="translate(132.809 417.157)" fill="#263238"/>
      <path id="Tracciato_42" data-name="Tracciato 42" d="M361.1,214.7s28.6,10.992,28.735,45.361C390.06,326.013,265.7,398.616,265.7,398.616L100.208,280.982l-10.365-4.434S313.228,186.45,361.1,214.7Z" transform="translate(101.781 293.189)" fill="#263238"/>
      <path id="Tracciato_43" data-name="Tracciato 43" d="M134.007,317.768a27.273,27.273,0,0,0,4.312-3.133c2.717-2.107,6.59-5.24,11.39-9.16,9.47-7.859,22.356-19,36.235-31.767s26.034-24.769,34.739-33.636c4.344-4.415,7.81-8.043,10.169-10.607a30.177,30.177,0,0,0,3.531-4.1,32.425,32.425,0,0,0-3.986,3.664l-10.511,10.186c-8.884,8.61-21.152,20.427-35.048,33.2s-26.6,24.036-35.878,32.134l-10.983,9.618a33.08,33.08,0,0,0-3.97,3.609Z" transform="translate(151.811 315.815)" fill="#455a64"/>
      <path id="Tracciato_44" data-name="Tracciato 44" d="M211.122,222.022c0-.44-7.322-1.227-15.946,1.557s-14.449,7.64-14.172,7.988,6.3-3.664,14.644-6.266S211.139,222.59,211.122,222.022Z" transform="translate(205.042 310.507)" fill="#455a64"/>
      <path id="Tracciato_45" data-name="Tracciato 45" d="M196.388,217.446c-.146-.421-5.451,2.07-9.763,7.914s-5.565,11.89-5.142,11.963,2.278-5.35,6.508-10.827S196.664,217.941,196.388,217.446Z" transform="translate(205.507 304.659)" fill="#455a64"/>
      <path id="Tracciato_46" data-name="Tracciato 46" d="M226.213,304.446c.081-.22-1.985-.641-4.279,1.374a17.239,17.239,0,0,0-4.784,10.314,21.634,21.634,0,0,0,1.513,11.359c1.172,2.693,2.457,3.957,2.6,3.829s-.683-1.667-1.5-4.305a24.6,24.6,0,0,1-.944-10.626,18.44,18.44,0,0,1,4-9.618A11.247,11.247,0,0,1,226.213,304.446Z" transform="translate(245.777 426.38)" fill="#263238"/>
      <path id="Tracciato_47" data-name="Tracciato 47" d="M383.353,181.659,336.281,317.723c-2.868,7.921-9.783,13.024-17.377,12.824L59.756,326.883v-21.16l96.161,3.774,40.824-135.826c1.489-4.671,5.453-7.756,9.86-7.676l167.168.513a9.581,9.581,0,0,1,8.4,4.678,12.345,12.345,0,0,1,1.179,10.473Z" transform="translate(67.696 232.614)" fill="#e0e0e0"/>
      <path id="Tracciato_48" data-name="Tracciato 48" d="M383.578,181.942l.114-.421c0-.293.228-.7.325-1.264a11.864,11.864,0,0,0-.114-5.111,10.989,10.989,0,0,0-4.54-6.577,9.736,9.736,0,0,0-4.719-1.594c-1.774-.092-3.71,0-5.744,0H299.148l-48.813-.092H208.47a10.713,10.713,0,0,0-6.9,1.63,10.852,10.852,0,0,0-4.3,6.046c-12.333,41.074-26.034,86.764-40.677,135.569l-.1.311h-.309L60.03,306.775l.423-.44v21.123l-.407-.44,162.97,2.327,70.73.733,16.271.257,7.94.11a18.065,18.065,0,0,0,7.534-1.173,18.5,18.5,0,0,0,10.381-10.736l5.06-14.491,31.175-89.384,8.477-24.238c1.936-5.5,2.994-8.427,2.994-8.427s-.944,2.931-2.847,8.482-4.719,13.777-8.314,24.292c-7.289,21.141-17.9,51.7-30.915,89.531-1.627,4.727-3.336,9.563-5.044,14.528a19.247,19.247,0,0,1-10.723,11.1,18.439,18.439,0,0,1-7.778,1.246l-7.924-.11-16.271-.22-70.844-.953L59.964,327.587h-.407V305.6H60l96.161,3.792-.407.293,40.808-135.569a11.153,11.153,0,0,1,11.862-8.281h14.416l27.449.11,48.813.2,69.737.348c2.034,0,3.954,0,5.76.092a9.727,9.727,0,0,1,4.881,1.667,11.177,11.177,0,0,1,4.572,6.723,11.573,11.573,0,0,1,0,5.166,11.925,11.925,0,0,1-.472,1.8Z" transform="translate(67.472 232.331)" fill="#263238"/>
      <path id="Tracciato_49" data-name="Tracciato 49" d="M160.169,194.757c3.352-2.455,9.567-1.466,12.594,1.447a11.435,11.435,0,0,1,2.457,11.963,11.071,11.071,0,0,1-9.453,7.09,9.948,9.948,0,0,1-10.007-7.09c-1.2-4.452.13-10.992,4.409-13.41" transform="translate(175.975 270.976)" fill="#fff"/>
      <path id="Tracciato_50" data-name="Tracciato 50" d="M378.552,397.647S145,237.144,134.683,230.934c-8.77-5.368-32.233-20.867-55.321-14.015S35.43,246.011,25.114,278.548c-5.923,18.577-8.721,50.289-10.039,74.05-1.725,28.689,6.918,56.946,23.967,78.355,7.891,9.8,17.605,18.32,29.158,22.2,2.424.806,4.963,1.5,7.55,2.107,43.855,10,88.8-10.238,114.434-51.535l5.451-8.922S348.581,455.1,350.973,454.239Z" transform="translate(16.834 301.577)" fill="#263238"/>
      <path id="Tracciato_51" data-name="Tracciato 51" d="M147.354,240.124a2.834,2.834,0,0,1-.586-.366l-1.627-1.209c-1.432-1.062-3.531-2.62-6.313-4.525a119.918,119.918,0,0,0-24.8-13.52,62.317,62.317,0,0,0-18.7-4.232,50.586,50.586,0,0,0-21.478,3.664A68.8,68.8,0,0,0,53.21,233.382a98.146,98.146,0,0,0-9.226,9.746,72.906,72.906,0,0,0-7.6,11.578A124.684,124.684,0,0,0,26.314,280.52c-2.2,8.739-3.954,17.368-5.63,25.52A249.262,249.262,0,0,0,15.3,350.008,169.844,169.844,0,0,0,17.43,379.8c.5,3.5,1.09,6.174,1.432,8.006.163.843.293,1.521.391,2.089a2.931,2.931,0,0,1,.081.715,3.426,3.426,0,0,1-.228-.678c-.13-.55-.309-1.228-.5-2.052-.439-1.832-1.106-4.47-1.708-7.969a158.994,158.994,0,0,1-2.571-29.917,242.881,242.881,0,0,1,5.093-44.225c1.627-8.226,3.384-16.781,5.6-25.648a123.726,123.726,0,0,1,10.234-26.235,73.428,73.428,0,0,1,7.761-11.817,97.158,97.158,0,0,1,9.323-9.783A69.35,69.35,0,0,1,73.4,218.671a51.472,51.472,0,0,1,22-3.664,63.262,63.262,0,0,1,18.956,4.47,114.412,114.412,0,0,1,24.764,14.033c2.75,2,4.881,3.664,6.183,4.782l1.627,1.319A2.406,2.406,0,0,1,147.354,240.124Z" transform="translate(16.22 301.199)" fill="#455a64"/>
      <path id="Tracciato_52" data-name="Tracciato 52" d="M49.755,346.01s.423.22,1.285.6l3.824,1.631,14.823,6.119,55.094,22.259c23.4,9.362,51.416,20.5,82.868,32.775s66.288,25.667,103.532,39.205l.667.238.342-.678,18.256-37.428c3.254-6.54,6.362-13.026,9.323-19.09l.358-.733-.651-.44L161.13,269.065l-53.58-36.256L93,223.082,89.2,220.59c-.862-.568-1.318-.806-1.318-.806s.407.348,1.237.953l3.71,2.528,14.384,10.021,53.3,36.64L338.565,391.866l-.293-1.172c-2.961,6.046-6.118,12.549-9.307,19.071-6.264,12.824-12.415,25.465-18.256,37.446l1.009-.44c-37.212-13.484-72.08-26.894-103.565-39.059l-82.982-32.39L69.849,353.558l-14.872-5.716-3.954-1.466A3.485,3.485,0,0,0,49.755,346.01Z" transform="translate(56.366 308)" fill="#455a64"/>
      <path id="Tracciato_53" data-name="Tracciato 53" d="M61.77,121.506c-4.084-8.592-8.135-17.276-10.381-26.638S49.062,75.3,52.772,66.527c2.18-5.13,5.6-9.636,7.306-14.968,2.343-7.328,1.383-15.994,5.613-22.3,6.622-9.82,20.794-7.53,31.029-12.678,7.924-4.012,13.554-12.659,21.933-15.554,7.322-2.51,15.311,0,22.389,3.151s13.96,7.328,21.592,8.446c5.434.769,10.95,0,16.434,0s11.308,1.429,15.165,5.606,4.67,11.89.488,15.7c9.6-1.74,18.63,8.537,18.516,18.98s-7.468,19.621-16.271,23.963-18.956,4.617-28.653,3.811c-27.465-2.29-55.061-13.5-73.756-35.193" transform="translate(56.441 -0.008)" fill="#5e432b"/>
      <path id="Tracciato_54" data-name="Tracciato 54" d="M68.352,72.278,49.64,218.162c-3.254,24.805,13.635,47.413,36.886,49.593h0c21.689,2.034,41.068-14.656,44.013-37.721,1.4-10.992,2.587-20.152,2.8-21.27,0,0,35.064,1.631,42.3-34.808,3.482-17.587,7.924-54.429,11.569-87.809,3.921-35.853-18.516-68.92-51.514-75.992l-3.254-.7C96.6,4.109,72.354,33.751,68.352,72.278Z" transform="translate(55.781 12.359)" fill="#ffbe9d"/>
      <path id="Tracciato_55" data-name="Tracciato 55" d="M110.956,105.3a79.17,79.17,0,0,1-41.816-23.01s5.6,28.488,40.124,32.482Z" transform="translate(78.326 115.308)" fill="#eb996e"/>
      <path id="Tracciato_56" data-name="Tracciato 56" d="M112.025,57.38c-.555,2.909-3.064,4.793-5.662,4.25a4.412,4.412,0,0,1-3.16-1.88,5.578,5.578,0,0,1-.972-3.873c.547-2.916,3.059-4.81,5.662-4.269a4.431,4.431,0,0,1,3.161,1.891,5.6,5.6,0,0,1,.972,3.879Z" transform="translate(115.77 72.179)" fill="#263238"/>
      <path id="Tracciato_57" data-name="Tracciato 57" d="M119.089,52.427c-.716.55-3.856-3.151-9.079-4.25s-9.584.879-10.023,0c-.228-.348.618-1.447,2.538-2.4a12.784,12.784,0,0,1,15.295,3.5C119.137,50.851,119.446,52.189,119.089,52.427Z" transform="translate(113.23 62.457)" fill="#263238"/>
      <path id="Tracciato_58" data-name="Tracciato 58" d="M89.12,53.605c-.555,2.909-3.064,4.793-5.662,4.25a4.436,4.436,0,0,1-3.127-1.891,5.6,5.6,0,0,1-.973-3.843c.555-2.909,3.064-4.793,5.662-4.25a4.436,4.436,0,0,1,3.127,1.891A5.6,5.6,0,0,1,89.12,53.605Z" transform="translate(89.863 66.939)" fill="#263238"/>
      <path id="Tracciato_59" data-name="Tracciato 59" d="M94.927,48.3c-.732.55-3.872-3.169-9.1-4.269s-9.584.879-10.023,0c-.212-.366.618-1.466,2.538-2.418A12.859,12.859,0,0,1,93.56,44.966C94.96,46.707,95.285,48.044,94.927,48.3Z" transform="translate(85.845 56.636)" fill="#263238"/>
      <path id="Tracciato_60" data-name="Tracciato 60" d="M90.019,90.253c0-.311,3.4-.22,8.8.183,1.367.147,2.668.128,3.075-.806a7.918,7.918,0,0,0-.1-4.433c-.6-3.664-1.237-7.64-1.92-11.743-2.587-16.69-4.165-30.3-3.547-30.411s3.254,13.337,5.825,30.027q.895,6.192,1.741,11.78a9.019,9.019,0,0,1-.358,5.771,3.327,3.327,0,0,1-2.587,1.612,7.765,7.765,0,0,1-2.327-.147C93.273,91.26,90.019,90.583,90.019,90.253Z" transform="translate(101.98 60.3)" fill="#263238"/>
      <path id="Tracciato_61" data-name="Tracciato 61" d="M83.309,62.948c.862.128-.26,6.211,3.791,11.578s10.2,5.991,10.088,6.833c0,.4-1.627.9-4.133.421a14.321,14.321,0,0,1-8.493-5.368,14.1,14.1,0,0,1-2.8-9.618C82.007,64.212,82.935,62.838,83.309,62.948Z" transform="translate(92.582 88.191)" fill="#263238"/>
      <path id="Tracciato_62" data-name="Tracciato 62" d="M100.215,38.647c-.8,1.411-5.874-.421-12.154-.934s-11.569.2-12.122-1.337c-.244-.733.879-1.979,3.157-3.023a19.931,19.931,0,0,1,18.5,1.722C99.662,36.54,100.573,37.969,100.215,38.647Z" transform="translate(85.992 44.598)" fill="#5e432b"/>
      <path id="Tracciato_63" data-name="Tracciato 63" d="M118.8,45.619c-1.155,1.081-4.507-1.008-8.835-2s-8.135-.861-8.738-2.382c-.244-.714.57-1.832,2.392-2.73a11.647,11.647,0,0,1,7.582-.55,12.424,12.424,0,0,1,6.508,4.085C119.058,43.677,119.319,45.087,118.8,45.619Z" transform="translate(114.627 52.631)" fill="#5e432b"/>
      <path id="Tracciato_64" data-name="Tracciato 64" d="M71.1,48.632c-.521-.4-21.982-12.421-25.871,12.678s20.388,24.109,20.534,23.45S71.1,48.632,71.1,48.632Z" transform="translate(50.767 63.614)" fill="#ffbe9d"/>
      <path id="Tracciato_65" data-name="Tracciato 65" d="M56.869,69.366c-.1-.11-.456.238-1.2.44a3.833,3.833,0,0,1-3.059-.476c-2.31-1.411-3.742-5.991-3.157-10.534a15.5,15.5,0,0,1,2.115-6.082,4.928,4.928,0,0,1,3.6-2.8,2.111,2.111,0,0,1,2.213,1.63c.2.751,0,1.227.1,1.3s.569-.33.537-1.411a2.781,2.781,0,0,0-.683-1.722,2.938,2.938,0,0,0-2.148-1.044A5.756,5.756,0,0,0,50.3,51.778a15.7,15.7,0,0,0-2.489,6.76c-.651,5.075,1.041,10.241,4.247,11.89a4.154,4.154,0,0,0,3.84,0C56.723,69.97,56.934,69.421,56.869,69.366Z" transform="translate(54.003 68.18)" fill="#eb996e"/>
      <path id="Tracciato_66" data-name="Tracciato 66" d="M186.419,55.211c-4.019,9.288-24.651,12.824-39.783,7.969-13.944-4.525-19-14.015-27.888-22.3-5.613-5.24-5.613-5.24-14.774-6.265-7.4-.824-13.342,7.09-18.956,12.366,3.124,19.932-5.109,39.681-13.245,57.965A10.141,10.141,0,0,1,68,110.117c-3.173,1.685-6.964-.971-8.868-4.177-3.026-5.13-3.384-11.523-3.254-17.606a111.241,111.241,0,0,1,7.761-40.3A70.18,70.18,0,0,1,88.045,16.611c13.6-9.27,30.752-11.926,46.519-8.262,15.685,3.782,29.956,12.909,40.873,26.143,4.881,6.009,9.291,12.824,10.983,20.7" transform="translate(63.277 9.457)" fill="#5e432b"/>
      <path id="Tracciato_67" data-name="Tracciato 67" d="M94.833,66.881c.212,0,.13-2.162,1.074-5.844a24.238,24.238,0,0,1,8.282-12.824,20.755,20.755,0,0,1,20.7-3.188,21.851,21.851,0,0,1,10.072,8.152,24.668,24.668,0,0,1,0,27.48,21.924,21.924,0,0,1-10.072,8.171A20.8,20.8,0,0,1,104.254,85.6,24.152,24.152,0,0,1,95.988,72.78c-.944-3.664-.862-5.844-1.074-5.826a5.055,5.055,0,0,0-.114,1.557,20.17,20.17,0,0,0,.472,4.47,24.354,24.354,0,0,0,8.136,13.832,21.93,21.93,0,0,0,22,3.756,23.443,23.443,0,0,0,10.983-8.757,26.508,26.508,0,0,0,0-29.88,23.272,23.272,0,0,0-10.983-8.739A21.937,21.937,0,0,0,103.31,47a24.4,24.4,0,0,0-8.136,13.85,20.088,20.088,0,0,0-.472,4.47,5.053,5.053,0,0,0,.13,1.557Z" transform="translate(107.271 58.464)" fill="#263238"/>
      <path id="Tracciato_68" data-name="Tracciato 68" d="M68.84,62.584c.2,0,.13-2.162,1.074-5.826A24.152,24.152,0,0,1,78.18,43.934a20.843,20.843,0,0,1,20.713-3.206A22.007,22.007,0,0,1,108.964,48.9a24.668,24.668,0,0,1,0,27.48,21.851,21.851,0,0,1-10.072,8.152A20.8,20.8,0,0,1,78.18,81.362a24.189,24.189,0,0,1-8.266-12.824c-.944-3.664-.879-5.844-1.074-5.844a5.116,5.116,0,0,0-.114,1.576,20.041,20.041,0,0,0,.472,4.269,24.3,24.3,0,0,0,8.135,13.85,21.923,21.923,0,0,0,22.1,3.811A23.277,23.277,0,0,0,110.4,77.46a26.529,26.529,0,0,0,0-29.88,23.277,23.277,0,0,0-10.967-8.739,21.894,21.894,0,0,0-22.1,3.811A24.3,24.3,0,0,0,69.2,56.5a19.921,19.921,0,0,0-.537,4.525,5.04,5.04,0,0,0,.179,1.557Z" transform="translate(77.78 52.355)" fill="#263238"/>
      <path id="Tracciato_69" data-name="Tracciato 69" d="M90.189,49.485c.228.513,3.254-.971,6.655.165s5.19,4.1,5.646,3.811.114-1.063-.667-2.327A8.322,8.322,0,0,0,97.4,47.708a7.687,7.687,0,0,0-5.451.238C90.628,48.532,90.059,49.265,90.189,49.485Z" transform="translate(102.152 66.297)" fill="#263238"/>
      <path id="Tracciato_70" data-name="Tracciato 70" d="M54,45.947c0,.568,7.468.916,16.661.769s16.645-.7,16.629-1.264-7.468-.9-16.661-.769S54,45.4,54,45.947Z" transform="translate(61.18 62.562)" fill="#263238"/>
      <path id="Tracciato_71" data-name="Tracciato 71" d="M149.473,16.966a7.776,7.776,0,0,1-.358,2.4,11.841,11.841,0,0,1-3.5,5.386,14.9,14.9,0,0,1-8.428,3.664,39.575,39.575,0,0,1-11.146-.623,178.871,178.871,0,0,1-19.851-4.305c-2.506-.7-4.523-1.319-5.906-1.832l-1.627-.531a2.342,2.342,0,0,1-.553-.238,2.222,2.222,0,0,1,.586.11l1.627.44,5.955,1.594c5.028,1.282,12.024,2.876,19.834,4.122a40.274,40.274,0,0,0,11.015.66,14.733,14.733,0,0,0,8.135-3.463,11.905,11.905,0,0,0,3.547-5.166q.386-1.088.667-2.217Z" transform="translate(111.141 23.758)" fill="#6d533b"/>
      <path id="Tracciato_72" data-name="Tracciato 72" d="M143.152,19.339a24.5,24.5,0,0,1-2,6.852,29.384,29.384,0,0,1-10.771,12.824,26.436,26.436,0,0,1-15.6,4.1,20.162,20.162,0,0,1-6.508-1.356,10.5,10.5,0,0,1,1.757.366,28.732,28.732,0,0,0,4.881.568,27.2,27.2,0,0,0,15.311-4.2,30.823,30.823,0,0,0,12.35-17.331A17.277,17.277,0,0,1,143.152,19.339Z" transform="translate(122.652 27.083)" fill="#6d533b"/>
    </g>
  </g>
</svg>
