<svg id="Social" xmlns="http://www.w3.org/2000/svg" width="842.981" height="102.145" viewBox="0 0 842.981 102.145">
  <g id="Twitter" transform="translate(370.418 0)">
    <g id="Capa_1" data-name="Capa 1">
      <rect id="Rettangolo_9" data-name="Rettangolo 9" width="102.145" height="102.145" rx="8.47" fill="#222221"/>
      <path id="Tracciato_75" data-name="Tracciato 75" d="M11.08,52.657A31.744,31.744,0,0,0,59.923,24.467,22.936,22.936,0,0,0,65.5,18.695a22.118,22.118,0,0,1-6.461,1.744,11.156,11.156,0,0,0,4.91-6.181,21.9,21.9,0,0,1-7.085,2.714A11.177,11.177,0,0,0,37.828,27.159a31.572,31.572,0,0,1-23-11.672A11.2,11.2,0,0,0,18.273,30.41a11.177,11.177,0,0,1-5.061-1.4A11.2,11.2,0,0,0,22.171,40.1a11,11,0,0,1-5.039.172,11.177,11.177,0,0,0,10.423,7.774A22.44,22.44,0,0,1,11.08,52.657Z" transform="translate(12.782 15.504)" fill="#fff"/>
    </g>
  </g>
  <g id="Linkedin" transform="translate(185.209 0)">
    <g id="Capa_1-2" data-name="Capa 1">
      <rect id="Rettangolo_10" data-name="Rettangolo 10" width="102.145" height="102.145" rx="8.47" fill="#222221"/>
      <rect id="Rettangolo_11" data-name="Rettangolo 11" width="10.574" height="34.134" transform="translate(27.911 39.691)" fill="#fff"/>
      <path id="Tracciato_76" data-name="Tracciato 76" d="M18.735,23.11A6.31,6.31,0,1,0,12.49,16.8a6.31,6.31,0,0,0,6.245,6.31Z" transform="translate(14.408 12.101)" fill="#fff"/>
      <path id="Tracciato_77" data-name="Tracciato 77" d="M31.143,35.206c0-4.8,2.154-7.667,6.461-7.667s5.772,2.757,5.772,7.667V53.124h10.51V31.588c0-9.131-5.19-13.568-12.426-13.568a11.931,11.931,0,0,0-10.294,5.642V18.9H21V53.038H31.122Z" transform="translate(24.225 20.787)" fill="#fff"/>
    </g>
  </g>
  <g id="Instagram" transform="translate(740.836 0)">
    <g id="Capa_1-3" data-name="Capa 1">
      <rect id="Rettangolo_12" data-name="Rettangolo 12" width="102.145" height="102.145" rx="8.47" fill="#222221"/>
      <path id="Tracciato_78" data-name="Tracciato 78" d="M38.707,15.749c7.495,0,8.377,0,11.328.172a15.527,15.527,0,0,1,5.19.969,8.614,8.614,0,0,1,3.23,2.154,8.981,8.981,0,0,1,2.154,3.23,15.269,15.269,0,0,1,.969,5.19c.129,2.95.151,3.833.151,11.306s0,8.377-.151,11.328a15.4,15.4,0,0,1-.969,5.19,9.174,9.174,0,0,1-5.319,5.319,15.527,15.527,0,0,1-5.19.9c-2.95.129-3.833.151-11.328.151s-8.356,0-11.306-.151a15.269,15.269,0,0,1-5.19-.969,8.981,8.981,0,0,1-3.23-2.154,8.614,8.614,0,0,1-2.154-3.23,15.4,15.4,0,0,1-.969-5.061c-.129-2.95-.172-3.833-.172-11.328s0-8.356.172-11.306a15.269,15.269,0,0,1,.969-5.19,9.174,9.174,0,0,1,5.319-5.319,15.269,15.269,0,0,1,5.19-.969c2.95-.129,3.833-.172,11.306-.172m0-5.039c-7.6,0-8.614,0-11.543.172a20.352,20.352,0,0,0-6.784,1.292,14.257,14.257,0,0,0-8.205,8.205,20.351,20.351,0,0,0-1.292,6.784c-.129,2.993-.172,3.941-.172,11.543s0,8.614.172,11.543a20.5,20.5,0,0,0,1.292,6.805,13.869,13.869,0,0,0,3.23,4.953,13.546,13.546,0,0,0,4.975,3.1,20.847,20.847,0,0,0,6.784,1.314c2.993.129,3.941.172,11.543.172s8.614,0,11.543-.172a21,21,0,0,0,6.805-1.314,14.343,14.343,0,0,0,8.184-8.184,21,21,0,0,0,1.314-6.805c.129-2.972.172-3.941.172-11.543s0-8.614-.172-11.543a20.847,20.847,0,0,0-1.378-6.719,13.546,13.546,0,0,0-3.23-4.975,13.869,13.869,0,0,0-4.953-3.23,20.5,20.5,0,0,0-6.805-1.292c-2.972-.129-3.941-.172-11.543-.172" transform="translate(12.355 12.355)" fill="#fff"/>
      <path id="Tracciato_79" data-name="Tracciato 79" d="M31.416,17a14.364,14.364,0,1,0,10.171,4.2A14.386,14.386,0,0,0,31.416,17m0,23.69a9.325,9.325,0,1,1,6.615-2.731,9.347,9.347,0,0,1-6.615,2.731" transform="translate(19.646 19.611)" fill="#fff"/>
      <path id="Tracciato_80" data-name="Tracciato 80" d="M35.809,18.57a3.36,3.36,0,1,1-3.36-3.36,3.36,3.36,0,0,1,3.36,3.36" transform="translate(33.558 17.546)" fill="#fff"/>
    </g>
  </g>
  <g id="YT" transform="translate(555.627 0)">
    <g id="Capa_1-4" data-name="Capa 1">
      <rect id="Rettangolo_13" data-name="Rettangolo 13" width="102.145" height="102.145" rx="8.47" fill="#222221"/>
      <path id="Tracciato_81" data-name="Tracciato 81" d="M84.779,19.342a10.251,10.251,0,0,0-7.236-7.279C71.082,10.34,45.605,10.34,45.605,10.34s-25.563,0-31.938,1.723a10.23,10.23,0,0,0-7.215,7.279C4.73,25.8,4.73,39.134,4.73,39.134s0,13.4,1.723,19.813a10.273,10.273,0,0,0,7.215,7.279c6.461,1.7,31.938,1.7,31.938,1.7s25.563,0,31.938-1.7a10.294,10.294,0,0,0,7.236-7.279c1.7-6.461,1.7-19.813,1.7-19.813S86.48,25.76,84.779,19.342Z" transform="translate(5.456 11.928)" fill="#fff"/>
      <path id="Tracciato_82" data-name="Tracciato 82" d="M19.83,42.384V18.07L41.194,30.216Z" transform="translate(22.876 20.845)" fill="#222221"/>
    </g>
  </g>
  <g id="GitHub" transform="translate(0 0)">
    <g id="OBJECTS">
      <ellipse id="Ellisse_1" data-name="Ellisse 1" cx="44.935" cy="45.29" rx="44.935" ry="45.29" transform="translate(8.033 1.228)" fill="#fff" stroke="#000" stroke-miterlimit="10" stroke-width="1"/>
      <path id="Tracciato_83" data-name="Tracciato 83" d="M80.9,0H21.314A21.287,21.287,0,0,0,0,21.278V80.867a21.287,21.287,0,0,0,21.28,21.278H80.865a21.27,21.27,0,0,0,21.28-21.278V21.278A21.27,21.27,0,0,0,80.9,0ZM61.883,82.253c-1.7.325-2.281-.736-2.281-1.712V71.281a8.071,8.071,0,0,0-2.332-6.231c7.576-.856,15.56-3.732,15.56-16.81a13.136,13.136,0,0,0-3.507-9.124,12.337,12.337,0,0,0-.34-9.021s-2.86-.907-9.363,3.424a32.179,32.179,0,0,0-8.512-1.147,31.552,31.552,0,0,0-8.512,1.147c-6.5-4.417-9.363-3.424-9.363-3.424a12.147,12.147,0,0,0-.323,9A13.2,13.2,0,0,0,29.4,48.239c0,13.044,7.95,15.971,15.509,16.827a7.274,7.274,0,0,0-2.162,4.553c-1.941.873-6.81,2.379-9.908-2.825a7.217,7.217,0,0,0-5.226-3.526s-3.32,0-.238,2.071a9.082,9.082,0,0,1,3.762,4.844s1.975,6.077,11.44,4.023v6.334c0,.907-.545,1.951-2.247,1.712a34.077,34.077,0,1,1,21.553,0Z" transform="translate(0 0)" fill="#1d2021"/>
    </g>
  </g>
</svg>