<svg xmlns="http://www.w3.org/2000/svg" viewBox="0 0 82.51 86.33"><defs><style>.cls-1{fill:#292c47;}.cls-2{fill:#eea886;}.cls-3{fill:#5779d4;}.cls-4{fill:#e55353;}.cls-5{fill:#e64053;}.cls-6{fill:#5a3506;}.cls-7{fill:#191a2b;}.cls-8{fill:#525252;}.cls-9{fill:#6e6e6e;}.cls-10{fill:#a77860;}</style></defs><g id="Livello_2" data-name="Livello 2"><g id="Слой_1" data-name="Слой 1"><path class="cls-1" d="M82.5,64.58c-.2,1.4-8.62,7.3-10.28,8.48a17.83,17.83,0,0,1-4.5,2.13h0C63.15,76.4,34.47,85,34.47,85a3.86,3.86,0,0,0-.29-.87c-1.07.43-2.17.7-2.87.92-1.07.34-9.55.6-11.28.94s-5.21.87-6.61-.47.87-4.2,2.81-4.94,9-.93,10.27-1.07,2.94-.6,3.74-.33A9.72,9.72,0,0,0,33,78.4c0-.52-.05-.85-.05-.85l7.53-2.17L39.12,62.05s3.27-12.35,16.36-2.93c0,0,2.92.86,3.93,1.12a1.09,1.09,0,0,0,.33,0c2-.15,10.58-2.74,13.68-2.74,3.34,0,4.41-.2,5.61.4S82.7,63.18,82.5,64.58Z"/><path class="cls-1" d="M69.09,85.47c-1.4,1.34-4.87.8-6.61.47S52.27,85.34,51.2,85a17.35,17.35,0,0,1-4.47-1.73,3.91,3.91,0,0,0-.75-.33h0l-2.12,1.53L14.39,75.09a10.46,10.46,0,0,1-4.1-2C8.75,71.72.21,66,0,64.58s2.27-6.07,3.47-6.67,2.27-.4,5.61-.4,13,3,14,2.73a14,14,0,0,0,2.29-1.09c1.07-.58,2.07-1.18,2.07-1.18,14.34-6.39,15.93,4.08,15.93,4.08L42.54,75l2.75,1.33,7.11,2-.93.67a1.78,1.78,0,0,0,.8.15c.8-.27,2.47.2,3.74.33s8.34.34,10.27,1.07S70.49,84.14,69.09,85.47Z"/><path class="cls-1" d="M25.39,59.15c1,.07,7.67,3.94,9.26,4.87-2.41-1.26-11.55-3.78-11.55-3.78A14,14,0,0,0,25.39,59.15Z"/><path class="cls-1" d="M59.74,60.25s-11.5,2.79-13.61,4c.1-.07,6.06-4.6,9.2-5.21,0,0,3.07,1,4.08,1.24a1.09,1.09,0,0,0,.33,0Z"/><path class="cls-2" d="M69.09,85.47c-1.4,1.34-4.87.8-6.61.47S52.27,85.34,51.2,85l-1.11-.32h0a12.9,12.9,0,0,1-3.35-1.4,3.91,3.91,0,0,0-.75-.33l5.33-3.85.16-.11a1.78,1.78,0,0,0,.8.15c.8-.27,2.47.2,3.74.33s8.34.34,10.27,1.07S70.49,84.14,69.09,85.47Z"/><path class="cls-3" d="M69.09,85.47c-1.4,1.34-4.87.8-6.61.47S52.27,85.34,51.2,85l-1.11-.32h0a5.61,5.61,0,0,0,1.23-5.58l.16-.11a1.78,1.78,0,0,0,.8.15c.8-.27,2.47.2,3.74.33s8.34.34,10.27,1.07S70.49,84.14,69.09,85.47Z"/><path class="cls-4" d="M28.32,62.1a.06.06,0,0,1,0,.08C28.18,62.28,28.2,62.24,28.32,62.1Z"/><path class="cls-5" d="M66.89,46.49c-.11-.22-6.19-9.78-7.84-14.14a12.28,12.28,0,0,0-7.47-7l-3.11-1-4.72-1.53H36s-2.7.91-5.56,1.91h0c-2.64.93-5.42,1.94-6.36,2.41-2,1-5.25,8-5.92,8.77s-5.8,10.31-6.54,14C11,52.72,27.86,61,28.32,62.1c.53-.59,3-3,3-3s-.79-.49-1.89-1.22c4.51.21,15.54-.18,17.13-.1a8.89,8.89,0,0,0,1,0h0c.49.35,3.65,3.14,3.65,3.14S59,57.72,62.58,54.1C67.67,49,67.45,47.63,66.89,46.49ZM22.62,52.82c-1.67-2-4-3.21-3.39-4.1s5.48-9.34,5.48-9.34A69.12,69.12,0,0,1,28,47.83c.72,2.89.66,4.22.36,5.12a13.22,13.22,0,0,0-.73,3.75A31.52,31.52,0,0,1,22.62,52.82Zm34.43-1a34.32,34.32,0,0,1-5.58,3.74C51.3,54,51,51.46,51,50.54a22.43,22.43,0,0,1,1.25-6.85A28,28,0,0,0,53.45,38s5.89,8,6.83,8.86S59.26,49.36,57.05,51.87Z"/><path class="cls-2" d="M40.78,1.42s6.09,1,5.16,10.49-6.3,8.75-6.66,8.74-5.39.17-5.78-11.46C33.5,9.19,33.33.59,40.78,1.42Z"/><path class="cls-2" d="M46,9.22s.67-.71.91,0-.91,3.94-1,4.09c0,0-.12.28-.28.12A35,35,0,0,1,46,9.22Z"/><path class="cls-2" d="M33.66,9.1s-.65-.73-.91,0,.82,3.95.87,4.11c0,0,.12.28.28.13A35.45,35.45,0,0,0,33.66,9.1Z"/><path class="cls-6" d="M46,10.68l-.88,1.17a23.17,23.17,0,0,0-.11-3c-.14-.4-.35-1.62-.47-1.91s-5.23-1.72-9.75.42c0,0,.2,1.83-.23,2s-.22,3-.22,3l-.72-.81s-1.09-7.33-.82-8.09S34-1.87,43.23.86c0,0,2.89-.62,3.47,1.38S46,10.68,46,10.68Z"/><path class="cls-7" d="M31.82,71.6S22.5,66,18.43,65.14c-3.84-.83-5.25-2.27-5.25-2.27s6.12,0,10.19,2.89C26.14,67.72,31.82,71.6,31.82,71.6Z"/><path class="cls-7" d="M40.11,75.5S56.32,67,62.94,65.14a15.33,15.33,0,0,0,5.25-2.27s-10,1-16.12,4.65C49.16,69.27,40.11,75.5,40.11,75.5Z"/><path class="cls-2" d="M34.18,84.08c-1.07.43-2.17.7-2.87.92-1.07.34-9.55.6-11.28.94s-5.21.87-6.61-.47.87-4.2,2.81-4.94,9-.93,10.27-1.07,2.94-.6,3.74-.33A9.72,9.72,0,0,0,33,78.4C33.07,79.24,34.18,84.08,34.18,84.08Z"/><path class="cls-1" d="M40.11,83.28,56,78.56l-3.15-1S40.15,82.21,40.11,83.28Z"/><polygon class="cls-7" points="40.1 83.28 47.56 81 42.39 84 40.1 83.28"/><path class="cls-8" d="M35,64.21,34.65,64Z"/><path class="cls-3" d="M31.31,85c-1.07.34-9.55.6-11.28.94s-5.21.87-6.61-.47.87-4.2,2.81-4.94,9-.93,10.27-1.07,2.94-.6,3.74-.33A4.39,4.39,0,0,0,31.31,85Z"/><path class="cls-8" d="M26,62.87l-2.46-14,31.76-.74L53.29,61.91s-10.13,3.71-13.57,5.88C39.72,67.79,31,64.21,26,62.87Z"/><path class="cls-9" d="M41.59,57.32a1.8,1.8,0,1,1-1.78-2.09A2,2,0,0,1,41.59,57.32Z"/><path class="cls-2" d="M43.67,22.13h0c-.38-.85,0-4.29,0-4.29s-7.76-2-7.54-.46a19.42,19.42,0,0,1-.49,4.76l-4.16,2.23s4.24,11.38,9.12,9.91S47.27,24,47.27,24Z"/><path class="cls-10" d="M36.19,19a4.62,4.62,0,0,0,3.43,1.63A4.82,4.82,0,0,0,43.43,19a3.94,3.94,0,0,1-3.8,2.81S37.26,22,36.19,19Z"/></g></g></svg>